<svg width="136" height="40" viewBox="0 0 136 40" fill="none" xmlns="http://www.w3.org/2000/svg">
    <g clip-path="url(#a)">
        <path d="M130.664 0h-125a5 5 0 0 0-5 5v30a5 5 0 0 0 5 5h125a5 5 0 0 0 5-5V5a5 5 0 0 0-5-5z" fill="#000"/>
        <path d="M130.664.8a4.2 4.2 0 0 1 4.2 4.2v30a4.212 4.212 0 0 1-4.2 4.2h-125a4.21 4.21 0 0 1-4.2-4.2V5a4.21 4.21 0 0 1 4.2-4.2h125zm0-.8h-125a5 5 0 0 0-5 5v30a5 5 0 0 0 5 5h125a5.002 5.002 0 0 0 5-5V5a5.002 5.002 0 0 0-5-5z" fill="#A6A6A6"/>
        <path d="M48.084 10.24a2.68 2.68 0 0 1-.75 2 2.87 2.87 0 0 1-2.2.89 3 3 0 0 1-2.21-.9 2.998 2.998 0 0 1-.91-2.23 3.05 3.05 0 0 1 .91-2.24 3 3 0 0 1 2.21-.9c.423.002.84.087 1.23.25.36.15.681.379.94.67l-.53.53a2 2 0 0 0-1.64-.71 2.27 2.27 0 0 0-1.64.67 2.29 2.29 0 0 0-.69 1.73 2.3 2.3 0 0 0 1.444 2.224c.282.113.583.17.886.166a2.279 2.279 0 0 0 1.68-.67c.306-.33.483-.76.5-1.21h-2.18v-.72h2.91c.028.148.041.3.04.45zM52.694 7.73h-2.77v1.91h2.5v.72h-2.5v1.9h2.77V13h-3.5V7h3.5v.73zM55.924 13h-.75V7.73h-1.68V7h4.13v.73h-1.7V13zM60.604 13V7h.77v6h-.77zM64.794 13h-.77V7.73h-1.68V7h4.13v.73h-1.68V13zM74.274 12.22a3.112 3.112 0 0 1-4.4 0 3.25 3.25 0 0 1 0-4.45 3.1 3.1 0 0 1 4.4 0 3.24 3.24 0 0 1 0 4.44v.01zm-3.83-.5a2.32 2.32 0 0 0 3.26 0 2.54 2.54 0 0 0 0-3.44 2.29 2.29 0 0 0-3.26 0 2.54 2.54 0 0 0 0 3.44zM76.244 13V7h.93l2.92 4.66V7h.77v6h-.8l-3.05-4.9V13h-.77z" fill="#fff" stroke="#fff" stroke-width=".2" stroke-miterlimit="10"/>
        <path d="M68.804 21.75a4.26 4.26 0 1 0 4.27 4.25 4.188 4.188 0 0 0-4.27-4.25zm0 6.83a2.59 2.59 0 1 1 2.4-2.58 2.46 2.46 0 0 1-2.4 2.58zm-9.32-6.83a4.26 4.26 0 1 0 0 8.51 4.259 4.259 0 1 0 0-8.51zm0 6.83a2.59 2.59 0 1 1 2.44-2.58 2.46 2.46 0 0 1-2.44 2.58zm-11.08-5.53v1.81h4.32a3.77 3.77 0 0 1-1 2.27 4.419 4.419 0 0 1-3.32 1.32 4.8 4.8 0 0 1 0-9.6 4.58 4.58 0 0 1 3.26 1.29l1.26-1.27a6.26 6.26 0 0 0-4.52-1.83 6.61 6.61 0 0 0 0 13.22 6 6 0 0 0 4.61-1.86 6 6 0 0 0 1.57-4.22c0-.379-.033-.757-.1-1.13h-6.08zm45.31 1.41a3.93 3.93 0 0 0-3.64-2.71 4 4 0 0 0-4 4.25 4.17 4.17 0 0 0 4.22 4.26 4.25 4.25 0 0 0 3.55-1.89l-1.45-1a2.45 2.45 0 0 1-2.1 1.18 2.159 2.159 0 0 1-2.06-1.29l5.69-2.31-.21-.49zm-5.79 1.41a2.34 2.34 0 0 1 2.23-2.48 1.65 1.65 0 0 1 1.58.9l-3.81 1.58zM83.304 30h1.87V17.5h-1.88l.01 12.5zm-3.06-7.3h-.07a2.92 2.92 0 0 0-2.24-1 4.26 4.26 0 0 0 0 8.51 2.9 2.9 0 0 0 2.24-1h.07v.74c0 1.63-.87 2.5-2.27 2.5a2.35 2.35 0 0 1-2.15-1.52l-1.62.68a4 4 0 0 0 3.72 2.46c2.19 0 4-1.29 4-4.43v-7.63h-1.69l.01.69zm-2.14 5.88a2.59 2.59 0 0 1 0-5.16 2.4 2.4 0 0 1 2.27 2.6 2.38 2.38 0 0 1-2.28 2.56h.01zm24.37-11.08h-4.47V30h1.86v-4.74h2.61a3.89 3.89 0 1 0 0-7.76zm.05 6h-2.66v-4.26h2.66a2.138 2.138 0 0 1 1.513 3.653 2.138 2.138 0 0 1-1.513.627v-.02zm11.53-1.79a3.498 3.498 0 0 0-3.33 1.91l1.65.69a1.999 1.999 0 0 1 3.67.69v.13a4.161 4.161 0 0 0-1.94-.48c-1.79 0-3.61 1-3.61 2.81a2.899 2.899 0 0 0 .973 2.034 2.88 2.88 0 0 0 2.137.716 2.641 2.641 0 0 0 2.38-1.22h.06v1h1.8v-4.8c0-2.24-1.65-3.46-3.79-3.46v-.02zm-.23 6.85c-.61 0-1.46-.31-1.46-1.06 0-1 1.06-1.34 2-1.34a3.321 3.321 0 0 1 1.7.42 2.261 2.261 0 0 1-2.24 2v-.02zm10.58-6.58-2.13 5.42h-.07l-2.22-5.42h-2l3.33 7.57-1.9 4.22h2l5.13-11.79h-2.14zm-16.8 8h1.86V17.5h-1.86v12.48z" fill="#fff"/>
        <path d="M11.104 7.54a2 2 0 0 0-.47 1.4v22.12a2 2 0 0 0 .47 1.4l.07.07 12.39-12.39v-.29L11.174 7.46l-.07.08z" fill="url(#b)"/>
        <path d="m27.694 24.28-4.13-4.14v-.29l4.13-4.13h.09l4.9 2.78c1.39.8 1.39 2.1 0 2.89l-4.9 2.78-.09.11z" fill="url(#c)"/>
        <path d="M27.784 24.22 23.564 20l-12.46 12.46a1.61 1.61 0 0 0 2.07.06l14.61-8.3" fill="url(#d)"/>
        <path d="m27.784 15.77-14.61-8.3a1.62 1.62 0 0 0-2.07.07L23.564 20l4.22-4.23z" fill="url(#e)"/>
        <path opacity=".2" d="m27.694 24.13-14.52 8.25a1.66 1.66 0 0 1-2 0l-.07.07.07.07a1.66 1.66 0 0 0 2 0l14.61-8.3-.09-.09z" fill="#000"/>
        <path opacity=".12" d="M11.104 32.32a2 2 0 0 1-.47-1.37v.15a2 2 0 0 0 .47 1.4l.07-.07-.07-.11zM32.684 21.3l-5 2.83.09.09 4.9-2.78a1.75 1.75 0 0 0 1-1.44 1.841 1.841 0 0 1-.99 1.3z" fill="#000"/>
        <path opacity=".25" d="m13.174 7.62 19.51 11.08a1.83 1.83 0 0 1 1 1.3 1.78 1.78 0 0 0-1-1.45L13.174 7.47c-1.39-.79-2.54-.13-2.54 1.47v.15c0-1.6 1.15-2.26 2.54-1.47z" fill="#fff"/>
    </g>
    <defs>
        <linearGradient id="b" x1="22.464" y1="8.71" x2="5.684" y2="25.49" gradientUnits="userSpaceOnUse">
            <stop stop-color="#00A0FF"/>
            <stop offset=".01" stop-color="#00A1FF"/>
            <stop offset=".26" stop-color="#00BEFF"/>
            <stop offset=".51" stop-color="#00D2FF"/>
            <stop offset=".76" stop-color="#00DFFF"/>
            <stop offset="1" stop-color="#00E3FF"/>
        </linearGradient>
        <linearGradient id="c" x1="34.504" y1="20" x2="10.304" y2="20" gradientUnits="userSpaceOnUse">
            <stop stop-color="#FFE000"/>
            <stop offset=".41" stop-color="#FFBD00"/>
            <stop offset=".78" stop-color="orange"/>
            <stop offset="1" stop-color="#FF9C00"/>
        </linearGradient>
        <linearGradient id="d" x1="25.494" y1="22.29" x2="2.734" y2="45.05" gradientUnits="userSpaceOnUse">
            <stop stop-color="#FF3A44"/>
            <stop offset="1" stop-color="#C31162"/>
        </linearGradient>
        <linearGradient id="e" x1="7.964" y1=".17" x2="18.124" y2="10.34" gradientUnits="userSpaceOnUse">
            <stop stop-color="#32A071"/>
            <stop offset=".07" stop-color="#2DA771"/>
            <stop offset=".48" stop-color="#15CF74"/>
            <stop offset=".8" stop-color="#06E775"/>
            <stop offset="1" stop-color="#00F076"/>
        </linearGradient>
        <clipPath id="a">
            <path fill="#fff" transform="translate(.664)" d="M0 0h135v40H0z"/>
        </clipPath>
    </defs>
</svg>
